<mxfile host="app.diagrams.net" agent="Mozilla/5.0 (X11; Linux x86_64) AppleWebKit/537.36 (KHTML, like Gecko) Chrome/128.0.0.0 Safari/537.36" version="24.8.4">
  <diagram name="Page-1" id="AHKB0w1PPUWd5qs33TRj">
    <mxGraphModel dx="1111" dy="612" grid="1" gridSize="10" guides="1" tooltips="1" connect="1" arrows="1" fold="1" page="1" pageScale="1" pageWidth="850" pageHeight="1100" math="0" shadow="0">
      <root>
        <mxCell id="0" />
        <mxCell id="1" parent="0" />
        <mxCell id="HQ6PmvWEvNkOWUN0YGag-1" value="Fetch crews" style="ellipse;whiteSpace=wrap;html=1;aspect=fixed;" vertex="1" parent="1">
          <mxGeometry x="60" y="60" width="80" height="80" as="geometry" />
        </mxCell>
        <mxCell id="HQ6PmvWEvNkOWUN0YGag-2" value="Fetch Agents" style="ellipse;whiteSpace=wrap;html=1;aspect=fixed;" vertex="1" parent="1">
          <mxGeometry x="180" y="60" width="80" height="80" as="geometry" />
        </mxCell>
        <mxCell id="HQ6PmvWEvNkOWUN0YGag-3" value="Fetch Task" style="ellipse;whiteSpace=wrap;html=1;aspect=fixed;" vertex="1" parent="1">
          <mxGeometry x="300" y="60" width="80" height="80" as="geometry" />
        </mxCell>
        <mxCell id="HQ6PmvWEvNkOWUN0YGag-4" value="Update Crews" style="ellipse;whiteSpace=wrap;html=1;aspect=fixed;" vertex="1" parent="1">
          <mxGeometry x="60" y="150" width="80" height="80" as="geometry" />
        </mxCell>
        <mxCell id="HQ6PmvWEvNkOWUN0YGag-5" value="Update Agents" style="ellipse;whiteSpace=wrap;html=1;aspect=fixed;" vertex="1" parent="1">
          <mxGeometry x="180" y="150" width="80" height="80" as="geometry" />
        </mxCell>
        <mxCell id="HQ6PmvWEvNkOWUN0YGag-6" value="Update Task" style="ellipse;whiteSpace=wrap;html=1;aspect=fixed;" vertex="1" parent="1">
          <mxGeometry x="300" y="160" width="80" height="80" as="geometry" />
        </mxCell>
        <mxCell id="HQ6PmvWEvNkOWUN0YGag-7" value="Delete Task" style="ellipse;whiteSpace=wrap;html=1;aspect=fixed;" vertex="1" parent="1">
          <mxGeometry x="60" y="250" width="80" height="80" as="geometry" />
        </mxCell>
        <mxCell id="HQ6PmvWEvNkOWUN0YGag-8" value="Delete Agents" style="ellipse;whiteSpace=wrap;html=1;aspect=fixed;" vertex="1" parent="1">
          <mxGeometry x="180" y="250" width="80" height="80" as="geometry" />
        </mxCell>
        <mxCell id="HQ6PmvWEvNkOWUN0YGag-9" value="Delete Task" style="ellipse;whiteSpace=wrap;html=1;aspect=fixed;" vertex="1" parent="1">
          <mxGeometry x="300" y="250" width="80" height="80" as="geometry" />
        </mxCell>
      </root>
    </mxGraphModel>
  </diagram>
</mxfile>
